HIERARCHY
ROOT root
{
	OFFSET 0.000000 0.000000 0.000000
	CHANNELS 6 Xposition Yposition Zposition Zrotation Yrotation Xrotation
	JOINT lhip
	{
		OFFSET 0.058581 -0.082280 -0.017664
		CHANNELS 3 Zrotation Yrotation Xrotation
		JOINT lknee
		{
			OFFSET 0.043451 -0.386469 0.008037
			CHANNELS 3 Zrotation Yrotation Xrotation
			JOINT lankle
			{
				OFFSET -0.014790 -0.426874 -0.037428
				CHANNELS 3 Zrotation Yrotation Xrotation
				JOINT ltoe
				{
					OFFSET 0.041054 -0.060286 0.122042
					CHANNELS 3 Zrotation Yrotation Xrotation
					End Site
					{
						OFFSET 0.000000 0.000000 0.000000
					}
				}
			}
		}
	}
	JOINT rhip
	{
		OFFSET -0.060310 -0.090513 -0.013543
		CHANNELS 3 Zrotation Yrotation Xrotation
		JOINT rknee
		{
			OFFSET -0.043257 -0.383688 -0.004843
			CHANNELS 3 Zrotation Yrotation Xrotation
			JOINT rankle
			{
				OFFSET 0.019056 -0.420046 -0.034562
				CHANNELS 3 Zrotation Yrotation Xrotation
				JOINT rtoe
				{
					OFFSET -0.034840 -0.062106 0.130323
					CHANNELS 3 Zrotation Yrotation Xrotation
					End Site
					{
						OFFSET 0.000000 0.000000 0.000000
					}
				}
			}
		}
	}
	JOINT lowerback
	{
		OFFSET 0.004439 0.124404 -0.038385
		CHANNELS 3 Zrotation Yrotation Xrotation
		JOINT upperback
		{
			OFFSET 0.004488 0.137956 0.026820
			CHANNELS 3 Zrotation Yrotation Xrotation
			JOINT chest
			{
				OFFSET -0.002265 0.056032 0.002855
				CHANNELS 3 Zrotation Yrotation Xrotation
				JOINT lowerneck
				{
					OFFSET -0.013390 0.211636 -0.033468
					CHANNELS 3 Zrotation Yrotation Xrotation
					JOINT upperneck
					{
						OFFSET 0.010113 0.088937 0.050410
						CHANNELS 3 Zrotation Yrotation Xrotation
						End Site
						{
							OFFSET 0.000000 0.000000 0.000000
						}
					}
				}
				JOINT lclavicle
				{
					OFFSET 0.071702 0.114000 -0.018898
					CHANNELS 3 Zrotation Yrotation Xrotation
					JOINT lshoulder
					{
						OFFSET 0.122921 0.045205 -0.019046
						CHANNELS 3 Zrotation Yrotation Xrotation
						JOINT lelbow
						{
							OFFSET 0.255332 -0.015649 -0.022946
							CHANNELS 3 Zrotation Yrotation Xrotation
							JOINT lwrist
							{
								OFFSET 0.265709 0.012698 -0.007375
								CHANNELS 3 Zrotation Yrotation Xrotation
								End Site
								{
									OFFSET 0.000000 0.000000 0.000000
								}
							}
						}
					}
				}
				JOINT rclavicle
				{
					OFFSET -0.082954 0.112472 -0.023707
					CHANNELS 3 Zrotation Yrotation Xrotation
					JOINT rshoulder
					{
						OFFSET -0.113228 0.046853 -0.008472
						CHANNELS 3 Zrotation Yrotation Xrotation
						JOINT relbow
						{
							OFFSET -0.260127 -0.014369 -0.031269
							CHANNELS 3 Zrotation Yrotation Xrotation
							JOINT rwrist
							{
								OFFSET -0.269108 0.006794 -0.006027
								CHANNELS 3 Zrotation Yrotation Xrotation
								End Site
								{
									OFFSET 0.000000 0.000000 0.000000
								}
							}
						}
					}
				}
			}
		}
	}
}
MOTION
Frames: 10
Frame Time: 0.033333
0.136166 0.193775 0.976274 -36.307124 16.601728 109.926462 25.797696 11.742736 -55.367781 -4.073777 14.814124 28.577469 2.728676 8.281197 -8.450372 0.000000 -0.000000 0.000000 -11.621289 -16.876634 6.754597 9.239974 2.642240 12.242894 18.511226 4.853599 18.246409 0.000000 -0.000000 0.000000 -6.666978 15.543134 11.163577 1.335372 -2.210653 -5.801916 3.243906 2.101771 -1.120214 5.510807 6.980044 -12.873541 6.995496 1.844305 5.014047 -29.250356 2.507732 1.924032 -40.388306 7.798346 -5.583723 21.476953 -22.011668 -20.321779 19.966608 -7.371496 -4.233316 27.332543 8.777877 2.538073 25.630679 20.267486 -0.375817 -8.395068 52.024934 0.030364 0.206096 7.377325 -9.293666 
0.136638 0.162710 0.988588 -34.174724 17.074148 111.001642 25.403153 8.777303 -53.820866 -3.975669 14.402094 26.126026 3.289192 9.954426 -10.154585 0.000000 -0.000000 0.000000 -11.726246 -13.219455 6.719017 9.195152 2.670748 18.732425 18.858247 4.196499 13.258709 0.000000 -0.000000 0.000000 -6.566613 14.181304 11.095635 2.029617 -1.870757 -5.646696 2.991607 2.520579 -0.632946 6.453876 7.184154 -13.688161 5.898637 0.608222 6.001085 -29.210201 3.191200 1.180834 -41.267189 6.740827 -3.395636 21.018342 -22.205458 -19.345741 19.263124 -7.976862 -5.084378 27.349800 7.692139 1.422880 25.106537 18.590657 1.332449 -7.834227 49.236104 0.880780 -0.513232 7.667398 -8.327181 
0.138033 0.132400 0.999541 -31.592741 16.231962 111.986313 23.567184 5.192821 -52.134297 -4.276272 13.152768 23.447133 4.640812 10.787006 -10.406413 0.000000 -0.000000 0.000000 -12.688338 -9.414027 5.683295 8.062950 0.304171 29.855754 15.587554 -4.234741 10.929281 0.000000 -0.000000 0.000000 -7.122792 12.520303 10.234301 2.862198 -1.481259 -5.688603 2.785602 2.435754 0.495728 7.262532 5.631297 -13.941063 5.058704 1.340043 6.963320 -29.397323 4.325664 0.924471 -41.348207 4.767802 -1.623422 20.103776 -21.949427 -18.295773 19.408200 -8.423584 -4.996686 27.631899 5.986763 0.150660 25.454271 16.295503 4.347938 -9.968596 46.168476 -3.097959 0.403692 7.523977 -5.712644 
0.139595 0.102011 1.010082 -28.583196 14.826784 112.582126 20.620234 1.594586 -49.602174 -4.952311 9.633855 19.573013 6.239229 12.539659 -10.337645 0.000000 -0.000000 0.000000 -14.010249 -6.815781 4.467254 6.972995 -1.210881 44.744092 11.843302 -12.102443 7.766884 0.000000 -0.000000 0.000000 -7.501003 11.082389 9.281551 3.718410 -1.568668 -5.461131 2.658415 1.750461 1.119466 7.853758 4.049286 -13.403466 4.150114 1.990227 7.490609 -29.678446 5.051137 1.128866 -40.817635 3.697456 -0.615363 19.275571 -22.036855 -16.918661 19.725499 -7.837129 -5.403956 27.937182 4.441739 -0.650000 25.751553 13.240120 6.508910 -11.433123 43.043441 -6.398072 0.571247 6.651569 -5.138616 
0.140824 0.071171 1.019555 -25.583564 13.605691 111.962933 17.573012 -1.206327 -45.521243 -5.438255 6.139137 15.796612 7.160402 14.133123 -10.944410 0.000000 -0.000000 0.000000 -15.317589 -5.348665 4.134138 7.327951 -0.935604 60.698616 11.455544 -11.970891 4.261239 0.000000 -0.000000 0.000000 -7.056244 9.903153 9.440208 4.415611 -2.052183 -5.065095 2.553229 0.936480 0.956736 8.437831 3.658858 -12.319268 3.039130 1.738502 7.941592 -30.214369 4.906770 1.051060 -39.665035 4.071652 -0.428019 19.315806 -22.339061 -17.724259 18.377949 -7.616505 -5.472421 28.423509 3.246417 -1.275413 25.680410 9.736091 6.845534 -11.272822 40.307541 -8.259622 0.225445 6.266751 -4.450764 
0.141526 0.041083 1.027677 -23.102031 12.939555 110.426066 15.179815 -2.696914 -40.512315 -6.114786 2.798421 13.015621 7.103154 14.883241 -11.370511 0.000000 -0.000000 0.000000 -16.302657 -3.886938 4.037535 7.893678 -1.036419 76.075099 9.677215 -10.540843 -0.002442 0.000000 -0.000000 0.000000 -6.052095 8.621166 10.284819 4.901670 -2.115290 -4.372632 2.529302 0.208667 0.128508 8.873914 3.499019 -10.911943 2.167070 1.710420 8.498897 -30.858049 4.226595 0.911070 -38.446407 4.792276 -0.825954 20.299162 -22.581968 -20.390498 17.755441 -7.824602 -5.257769 28.833491 2.477091 -1.880507 25.150575 6.095000 6.162639 -9.559494 37.351710 -9.040494 -0.447234 6.415639 -3.711937 
0.142280 0.012342 1.033730 -21.072626 12.755534 108.529514 13.247036 -3.207654 -35.278530 -6.602011 -0.056758 10.679629 7.013354 15.542956 -11.688432 0.000000 -0.000000 0.000000 -16.909370 -2.335872 3.293852 6.468893 -1.073973 90.586416 6.749767 -13.537424 -4.326079 0.000000 -0.000000 0.000000 -4.446852 7.050246 11.673429 5.088447 -1.594763 -4.861584 2.382466 -0.387897 0.176555 9.093341 2.706678 -10.283002 1.510888 2.444041 9.573348 -31.137990 3.926747 0.687712 -37.711952 4.619108 -1.555813 21.707716 -23.168193 -23.103003 18.165904 -7.581021 -6.501137 28.723536 1.606881 -2.973530 25.209160 2.661988 6.139481 -8.365166 34.129686 -10.096070 -0.427112 6.318494 -2.643886 
0.143273 -0.016497 1.038040 -19.535314 12.784089 106.246840 11.322390 -3.029090 -29.424915 -6.660105 -3.666583 8.312539 6.414726 16.253851 -11.807363 0.000000 -0.000000 0.000000 -18.197970 -0.627898 1.953422 4.357571 -0.468314 103.200043 4.519813 -15.099936 -11.206310 0.000000 -0.000000 0.000000 -2.595266 5.276282 13.149328 4.951308 -0.983559 -5.173908 2.147167 -0.643162 0.074519 9.232289 2.290191 -8.672901 1.063936 2.916116 9.631129 -31.089398 3.631612 0.116246 -37.267951 4.603789 -2.433773 22.371921 -24.417444 -24.267767 17.680000 -6.870153 -6.235622 28.295676 1.156495 -3.437706 25.426723 -0.632136 5.367749 -7.283278 31.116521 -10.754303 -1.204999 6.006173 -0.986717 
0.143673 -0.045026 1.040420 -18.411810 12.797328 104.104057 9.944527 -2.359482 -23.745614 -6.927625 -6.626545 6.030614 5.730738 16.952246 -11.514927 0.000000 -0.000000 0.000000 -20.280011 1.337666 -1.323866 2.585645 -0.304168 113.720389 3.388731 -17.816080 -15.923253 0.000000 -0.000000 0.000000 -1.236792 3.316187 13.934491 4.859564 -0.208830 -5.254565 1.850581 -0.681654 0.035364 9.281768 1.470711 -6.489005 0.692131 3.610640 9.449874 -31.254321 3.643632 0.012075 -36.388933 4.456082 -3.045719 22.873827 -26.722032 -24.565276 16.023467 -6.508767 -6.154043 27.954545 0.682430 -3.436532 25.662214 -3.481076 4.838031 -6.900381 28.508160 -12.002402 -1.214482 5.482720 0.377886 
0.143021 -0.073363 1.041835 -17.498755 12.685289 101.808897 8.878735 -1.068313 -17.946452 -7.424297 -9.743948 3.904344 4.974111 17.387087 -12.029120 0.000000 -0.000000 0.000000 -21.979811 3.108896 -5.903905 2.528769 -1.030235 119.722316 3.989566 -17.695060 -18.654738 0.000000 -0.000000 0.000000 -0.352720 1.286986 14.458597 4.719330 0.556148 -5.062123 1.487801 -0.712695 0.081321 9.405513 1.263941 -4.600309 0.415724 3.810348 9.824092 -31.407585 3.847963 -0.474881 -35.175316 4.385564 -2.872065 23.034177 -29.260449 -24.485448 15.068381 -6.416199 -5.635061 28.059715 0.210950 -3.352781 25.646628 -5.690412 4.634574 -6.593151 26.117555 -13.349650 -1.466196 5.026589 1.181905 
